<svg width="28" height="25" viewBox="0 0 28 25" fill="none" xmlns="http://www.w3.org/2000/svg">
<path d="M25.2002 2.8H13.5661L12.5311 1.24688C12.0124 0.467095 11.1376 -0.0010116 10.2011 1.73474e-06H3.79896C2.86248 -0.00103992 1.98771 0.467084 1.46915 1.24688L0.156667 3.21563C0.0545813 3.36896 0 3.54896 0 3.73334V21.4667C0.000833333 22.209 0.296043 22.9209 0.821067 23.4456C1.34586 23.9706 2.05776 24.2658 2.8 24.2667H25.2C25.9423 24.2658 26.6542 23.9706 27.1789 23.4456C27.7039 22.9208 27.9991 22.2089 28 21.4667V5.6C27.9992 4.85771 27.704 4.14581 27.1789 3.62107C26.6541 3.09607 25.9422 2.80086 25.2 2.8H25.2002ZM26.1336 21.4667C26.1334 21.7142 26.0348 21.9513 25.8598 22.1262C25.6848 22.3012 25.4477 22.3998 25.2003 22.4H2.80025C2.55275 22.3998 2.31567 22.3012 2.14068 22.1262C1.96569 21.9512 1.86714 21.7142 1.86693 21.4667V4.016L3.02298 2.28246C3.19569 2.02246 3.48715 1.86641 3.79925 1.86683H10.2014C10.5135 1.86641 10.8051 2.02246 10.978 2.28246L12.2905 4.2512C12.4634 4.51099 12.7549 4.66683 13.067 4.66683H25.2003C25.4478 4.66704 25.6849 4.76558 25.8599 4.94058C26.0349 5.11558 26.1334 5.35266 26.1336 5.60015L26.1336 21.4667Z" fill="#404040"/>
<path d="M16.6925 13.313C17.3725 12.6053 17.7462 11.6582 17.7331 10.6767C17.72 9.6953 17.321 8.7586 16.6223 8.06922C15.9237 7.37983 14.9816 6.99316 14.0002 6.99316C13.0188 6.99316 12.0767 7.37983 11.3781 8.06922C10.6793 8.7586 10.2804 9.69524 10.2673 10.6767C10.2542 11.6582 10.6279 12.6053 11.3079 13.313C10.0771 14.1162 9.33459 15.4859 9.33353 16.9555V18.278C9.33415 18.7524 9.52269 19.207 9.85811 19.5422C10.1935 19.8776 10.6483 20.0661 11.1225 20.0668H16.8777C17.3518 20.0661 17.8066 19.8776 18.1421 19.5422C18.4775 19.207 18.666 18.7524 18.6666 18.278V16.9555C18.6656 15.4859 17.9231 14.1162 16.6922 13.313H16.6925ZM14.0002 8.86676C14.4952 8.86676 14.97 9.06343 15.3202 9.41343C15.6702 9.76364 15.8669 10.2384 15.8669 10.7334C15.8669 11.2284 15.6702 11.7032 15.3202 12.0534C14.97 12.4034 14.4952 12.6001 14.0002 12.6001C13.5052 12.6001 13.0304 12.4034 12.6802 12.0534C12.3302 11.7032 12.1335 11.2284 12.1335 10.7334C12.1342 10.2384 12.3308 9.76404 12.6808 9.41407C13.0308 9.0641 13.5052 8.8674 14.0002 8.86676ZM16.8002 18.2001H11.2002V16.9555C11.201 16.2957 11.4635 15.663 11.93 15.1966C12.3967 14.7299 13.0294 14.4674 13.6892 14.4668H14.3112C14.971 14.4674 15.6037 14.7299 16.0704 15.1966C16.5368 15.663 16.7993 16.2957 16.8002 16.9555V18.2001Z" fill="#404040"/>
</svg>
