<svg width="17" height="13" viewBox="0 0 17 13" fill="none" xmlns="http://www.w3.org/2000/svg">
<path d="M16.6887 6.15308C16.6817 5.93305 16.6073 5.67867 16.4833 5.5183L12.4374 0.286466C12.1633 -0.0134211 11.6375 -0.137069 11.3312 0.209618C11.0294 0.551148 11.0384 1.2132 11.3389 1.556L14.1836 5.22982L0.758621 5.22982C0.33972 5.22982 0 5.64327 0 6.15312C0 6.66296 0.339707 7.07641 0.758621 7.07641L14.1836 7.07641L11.3389 10.7502C11.08 11.0658 11.0322 11.7514 11.3312 12.0966C11.63 12.442 12.1745 12.3317 12.4374 12.0195L16.4833 6.78771C16.6217 6.60868 16.6891 6.39852 16.6887 6.15293V6.15308Z" fill="black"/>
</svg>
