<svg width="24" height="26" viewBox="0 0 24 26" fill="none" xmlns="http://www.w3.org/2000/svg">
<path d="M19.3332 0C19.7015 0 20 0.298442 20 0.666518L19.9993 2.00001H21.3332C22.806 2.00001 24 3.19379 24 4.66654V17.8906C24 18.3388 23.8871 18.7797 23.6714 19.1728C23.0081 20.3826 22.1716 21.492 21.165 22.4985C20.1585 23.5051 19.0491 24.3415 17.8393 25.0049C17.4464 25.2205 17.0053 25.3335 16.5571 25.3335H2.66676C1.19401 25.3335 0 24.1395 0 22.6667V4.66665C0 3.1939 1.19401 2.00012 2.66676 2.00012H3.99933L4 0.666632C4 0.29855 4.29844 0.000114223 4.66675 0.000114223C5.03483 0.000114223 5.33327 0.298556 5.33327 0.666632L5.3326 2.00012H18.6664L18.667 0.666632C18.667 0.29855 18.9655 0.000114223 19.3336 0.000114223L19.3332 0ZM22.6667 8.00004H1.33291V22.6664C1.33291 23.3693 1.87688 23.9452 2.56685 23.9961L2.66641 23.9999H14.8573L14.858 23.9972H15.9999L16.0776 23.9928C16.3837 23.9573 16.6265 23.7144 16.6622 23.4084L16.6667 23.3305V20.6664L16.6698 20.5334C16.737 19.1679 17.8309 18.0724 19.1959 18.0032L19.3332 17.9999H21.9999L22.0776 17.9954C22.3839 17.9597 22.6265 17.7168 22.6622 17.4108L22.6667 17.3332L22.6667 8.00004ZM22.0248 19.3327L19.3332 19.3331L19.2339 19.3367C18.5783 19.3851 18.0546 19.9072 18.004 20.5619L18 20.6664L17.9995 23.3577C18.7912 22.8463 19.5321 22.2454 20.2223 21.5554C20.9122 20.8653 21.5131 20.1244 22.0247 19.3327L22.0248 19.3327ZM14.7339 12.9595L14.7966 13.0148C15.037 13.2552 15.0553 13.6334 14.852 13.8947L14.7966 13.9577L11.3818 17.372C11.2662 17.4876 11.0865 17.5006 10.9566 17.4106L10.9104 17.3718L10.2035 16.6642L8.99544 15.4606C8.73495 15.2003 8.73495 14.7783 8.99544 14.518C9.25571 14.2575 9.67778 14.2575 9.9383 14.518L11.1461 15.7215L13.8537 13.0148C14.0941 12.7744 14.4723 12.7561 14.7339 12.9595L14.7339 12.9595ZM3.99955 3.33316H2.66697C1.96405 3.33316 1.38816 3.87713 1.33725 4.56711L1.33345 4.66644V6.66645H22.6673V4.66644C22.6673 3.96352 22.1233 3.38763 21.4333 3.33672L21.3338 3.33315H19.9998L20.0005 4.66641C20.0005 5.03472 19.702 5.33316 19.3337 5.33316C18.9657 5.33316 18.6672 5.03472 18.6672 4.66641L18.6666 3.33315H5.33277L5.33344 4.66641C5.33344 5.03472 5.035 5.33316 4.66693 5.33316C4.29862 5.33316 4.00018 5.03472 4.00018 4.66641L3.99955 3.33316Z" fill="#404040"/>
</svg>
