<svg width="23" height="31" viewBox="0 0 23 31" fill="none" xmlns="http://www.w3.org/2000/svg">
<path d="M10.0597 30.5379C9.87498 30.5379 9.75167 30.4764 9.56691 30.3531L5.93292 27.7048H1.4366C1.1904 27.7048 0.943782 27.5814 0.75903 27.3967C0.574278 27.1505 0.512837 26.9039 0.635719 26.6577L2.54505 21.1144C2.7298 20.683 3.16118 20.4368 3.59211 20.5601C4.02349 20.7449 4.26968 21.1762 4.14637 21.6072L2.66798 26.1035L6.24093 26.1031C6.42568 26.1031 6.54899 26.1645 6.73374 26.2878L9.62871 28.4439L11.1071 23.9475C11.2918 23.5162 11.7232 23.27 12.1542 23.3933C12.5855 23.578 12.8317 24.0094 12.7084 24.4403L10.9224 30.0456C10.8609 30.2918 10.6762 30.477 10.3681 30.5998C10.2444 30.538 10.1829 30.538 10.0596 30.538L10.0597 30.5379Z" fill="#404040"/>
<path d="M14.0018 30.7226H13.7557C13.5095 30.6612 13.2628 30.4764 13.2014 30.2298L12.3391 28.0124C12.1543 27.581 12.4005 27.1501 12.8319 26.9653C13.2633 26.7806 13.6942 27.0267 13.879 27.4581L14.3103 28.5666L16.9587 26.3492C17.082 26.2259 17.2668 26.1644 17.4515 26.103L20.9007 25.8568L19.1756 21.4833C18.9909 21.052 19.2371 20.621 19.607 20.3749C20.0384 20.1901 20.4693 20.4363 20.7155 20.8062L22.9329 26.2267C23.0562 26.4729 22.9943 26.781 22.8715 26.9657C22.6867 27.2119 22.502 27.3352 22.1939 27.3352L17.8824 27.5814L14.5565 30.415C14.3713 30.6612 14.2484 30.7226 14.0018 30.7226L14.0018 30.7226Z" fill="#404040"/>
<path d="M22.6251 9.16432L20.7157 7.00828L20.4695 4.11331C20.4081 3.80525 20.2233 3.49719 19.8534 3.3743L17.0198 2.57344L15.1719 0.356018C14.9257 0.109825 14.6176 -0.0134861 14.3096 0.109825L11.5993 0.972132L8.88898 0.0483837C8.58092 -0.0749273 8.21141 0.0483841 8.02667 0.294577L6.11733 2.512L3.16088 3.251C2.85282 3.37432 2.60663 3.55907 2.54476 3.92857L2.17525 6.76216L0.203996 8.97958C-0.0421973 9.22577 -0.0421966 9.59571 0.0806854 9.90333L1.31248 12.5517L0.819661 15.3853C0.758221 15.6933 0.942972 16.0628 1.18917 16.1861L3.65274 17.726L4.76123 20.3744C4.88454 20.6825 5.19261 20.8672 5.50024 20.8672H8.3952L10.7974 22.5304C10.9822 22.6537 11.1055 22.7151 11.2288 22.7151C11.4135 22.7151 11.5368 22.6537 11.6602 22.5304L14.0624 20.929L16.9573 21.0523C17.3268 21.0523 17.6349 20.8676 17.6963 20.5595L18.9281 17.9112L21.4536 16.3713C21.6998 16.1865 21.885 15.8785 21.8231 15.5704L21.3918 12.7368L22.6855 10.0885C22.9325 9.78039 22.8711 9.41046 22.6249 9.16428L22.6251 9.16432ZM19.7915 12.675L20.161 15.262L17.9436 16.6175C17.7588 16.7408 17.6974 16.8637 17.6355 16.987L16.527 19.3892L13.8782 19.2659C13.6935 19.2659 13.5701 19.3274 13.3854 19.4507L11.1684 20.8673L8.95099 19.3889C8.76624 19.2656 8.7048 19.2041 8.51962 19.2041H5.87125L5.00894 16.8024C4.9475 16.6176 4.82419 16.5562 4.70088 16.4328L2.48346 15.0163L2.91483 12.4293C2.97627 12.2445 2.91483 12.1212 2.85339 11.9365L1.7449 9.65756L3.46957 7.68631C3.59288 7.56299 3.65432 7.44011 3.71576 7.25493L4.08526 4.66794L6.61077 3.99038C6.79552 3.92894 6.91883 3.86706 6.98027 3.74418L8.70493 1.77292L11.2304 2.57379C11.4152 2.63523 11.5385 2.63523 11.7232 2.57379L14.1868 1.83478L15.9115 3.86742C16.0348 3.99073 16.1577 4.11361 16.3429 4.11361L18.9299 4.85262L19.176 7.50098C19.176 7.68573 19.2994 7.80904 19.4222 7.93236L21.1469 9.84169L19.9765 12.1824C19.7917 12.3053 19.7917 12.49 19.7917 12.6748L19.7915 12.675Z" fill="#404040"/>
<path d="M16.6505 9.34916C16.281 7.93259 15.2954 6.7008 14.0022 6.02325C12.7084 5.28424 11.2305 5.0995 9.81391 5.53044C8.39734 5.89994 7.16555 6.88553 6.488 8.1788C5.749 9.47252 5.56426 10.9505 5.99519 12.367C6.7342 14.8306 8.95164 16.4324 11.3538 16.4324C11.8467 16.4324 12.3395 16.371 12.8937 16.1862C15.7264 15.3854 17.5129 12.3056 16.6506 9.34918L16.6505 9.34916ZM12.3385 14.6463C10.2444 15.2625 8.08838 13.9688 7.53413 11.936C7.28794 10.9504 7.34938 9.84192 7.90364 8.97959C8.39645 8.05584 9.25872 7.37823 10.2444 7.13163C10.5524 7.00832 10.9834 6.94688 11.2914 6.94688C13.0161 6.94688 14.5559 8.1173 15.0487 9.78047C15.6648 11.8746 14.433 14.092 12.3384 14.6463L12.3385 14.6463Z" fill="#404040"/>
</svg>
