<svg width="39" height="39" viewBox="0 0 39 39" fill="none" xmlns="http://www.w3.org/2000/svg">
<path fill-rule="evenodd" clip-rule="evenodd" d="M33.9777 32.5634C37.0993 29.106 39 24.525 39 19.5C39 14.1152 36.8174 9.2402 33.2886 5.71139L27.235 11.7649C29.2146 13.7445 30.439 16.4792 30.439 19.5C30.439 22.1606 29.4891 24.5994 27.91 26.4957L33.9777 32.5634ZM33.2886 33.2885L27.2351 27.235C25.2555 29.2146 22.5207 30.439 19.5 30.439C16.4793 30.439 13.7445 29.2146 11.7649 27.235L5.71139 33.2886C9.2402 36.8174 14.1152 39 19.5 39C24.8848 39 29.7598 36.8174 33.2886 33.2885ZM12.5042 11.09C14.4006 9.51081 16.8393 8.56093 19.5 8.56093C22.1606 8.56093 24.5994 9.51082 26.4957 11.09L32.5634 5.02231C29.106 1.90067 24.525 0 19.5 0C14.475 0 9.89401 1.90067 6.4366 5.0223L12.5042 11.09ZM5.71146 5.71138L11.7649 11.7649C9.78536 13.7444 8.56095 16.4792 8.56095 19.5C8.56095 22.1606 9.51085 24.5994 11.09 26.4957L5.02231 32.5634C1.90067 29.106 0 24.525 0 19.5C0 14.1152 2.18263 9.24019 5.71146 5.71138Z" fill="#1E40AF"/>
</svg>
