<svg width="21" height="25" viewBox="0 0 21 25" fill="none" xmlns="http://www.w3.org/2000/svg">
<path d="M20.9783 19.1747C20.9692 19.2206 20.953 19.264 20.9382 19.3075C20.93 19.331 20.9262 19.3553 20.9163 19.3785C20.8957 19.4269 20.87 19.4717 20.8428 19.5167C20.8338 19.5325 20.8266 19.5499 20.8168 19.5654C20.777 19.6246 20.7323 19.6799 20.6824 19.7302L15.7722 24.6807C15.3499 25.1064 14.666 25.1064 14.2435 24.6807C13.8212 24.2555 13.8212 23.5654 14.2435 23.1394L17.3087 20.0487H1.31076C0.713506 20.0487 0.229811 19.5607 0.229811 18.9588C0.229811 18.3567 0.713808 17.869 1.31076 17.869H17.3087L14.2426 14.7778C13.8203 14.3526 13.8203 13.6625 14.2426 13.2365C14.4538 13.0236 14.7302 12.9171 15.0069 12.9171C15.2836 12.9171 15.56 13.0239 15.7712 13.2365L20.6825 18.1878C20.7324 18.2381 20.7771 18.2937 20.8168 18.3526C20.8267 18.3681 20.8338 18.3855 20.8429 18.4012C20.8695 18.446 20.8961 18.4911 20.9164 18.5395C20.9257 18.5624 20.9301 18.587 20.9383 18.6105C20.9528 18.6542 20.969 18.6973 20.9783 18.7432C20.992 18.8137 21 18.8856 21 18.9589C21 19.0322 20.992 19.1043 20.9783 19.1748L20.9783 19.1747ZM19.6892 7.13133H3.69124L6.75731 10.2226C7.1796 10.6478 7.1796 11.3379 6.75731 11.7639C6.33501 12.1899 5.65109 12.1897 5.22856 11.7639L0.317274 6.81227C0.267366 6.76195 0.222665 6.70638 0.182904 6.64749C0.17358 6.63256 0.166724 6.6157 0.158224 6.60077C0.131076 6.5557 0.103929 6.51009 0.0839102 6.4606C0.0748607 6.43792 0.0704729 6.41387 0.0622468 6.39092C0.0477133 6.34697 0.0312594 6.30328 0.0216623 6.25684C0.00740322 6.18634 0 6.11445 0 6.04119C0 5.96792 0.00740322 5.89604 0.0216623 5.82554C0.0307118 5.77909 0.047165 5.73569 0.0622468 5.69145C0.0704736 5.6685 0.0743131 5.64417 0.0839102 5.62178C0.104477 5.57257 0.131076 5.52695 0.158224 5.4816C0.166999 5.46667 0.17358 5.44981 0.182904 5.43488C0.222666 5.37571 0.267362 5.32042 0.317274 5.2701L5.22771 0.319323C5.43886 0.10644 5.71528 -1.17983e-06 5.99198 -1.17983e-06C6.26869 -1.17983e-06 6.54508 0.106716 6.75625 0.319323C7.17855 0.744537 7.17855 1.43463 6.75625 1.86063L3.69103 4.95132H19.689C20.2862 4.95132 20.7699 5.4393 20.7699 6.04115C20.7699 6.64303 20.2865 7.13126 19.6892 7.13126V7.13133Z" fill="#404040"/>
</svg>
