<svg width="24" height="27" viewBox="0 0 24 27" fill="none" xmlns="http://www.w3.org/2000/svg">
<path d="M2.91515 19.1996H21.0894C21.3721 19.1996 21.4518 19.0259 21.2492 18.8299C20.366 17.9702 17.8207 15.8837 13.6255 15.3849C13.8522 9.5089 15.6159 6.21382 15.9852 5.58573C16.0783 5.6783 16.184 5.78354 16.298 5.8975C16.409 6.00854 16.5284 6.1225 16.6488 6.24933C16.7743 6.3666 16.8937 6.50464 17.024 6.6325C17.1477 6.7668 17.274 6.90587 17.402 7.04473C17.5164 7.19439 17.6561 7.32392 17.7617 7.48063L17.9376 7.69837C17.9913 7.77476 18.0447 7.85073 18.097 7.92629C18.1457 8.00371 18.2097 8.07242 18.2549 8.15046C18.3016 8.22851 18.3477 8.30614 18.3975 8.37983C18.5024 8.52554 18.5752 8.68226 18.6597 8.82859C18.7031 8.90249 18.7429 8.9739 18.7838 9.0453C18.8177 9.11878 18.8519 9.18893 18.8832 9.25619C18.9482 9.39485 19.0258 9.52167 19.0763 9.64103C19.1228 9.76038 19.1738 9.86603 19.2147 9.95466C19.2984 10.1344 19.3604 10.2409 19.3604 10.2409C19.3604 10.2409 19.4105 10.1357 19.4703 9.94158C19.4983 9.84403 19.5361 9.72322 19.5662 9.58394C19.5996 9.44279 19.6004 9.28628 19.6095 9.10819C19.6114 9.02018 19.6129 8.92781 19.6151 8.8315C19.6089 8.73602 19.5904 8.63929 19.5782 8.53966C19.5468 8.33665 19.5136 8.12037 19.4319 7.91215C19.3598 7.69919 19.2793 7.47854 19.1541 7.27885C19.0977 7.17569 19.042 7.06838 18.9758 6.96916L18.7597 6.68458C18.6182 6.49175 18.4428 6.32922 18.2761 6.16836C18.1951 6.08616 18.0993 6.02098 18.0094 5.95145C17.9174 5.88337 17.835 5.80885 17.7385 5.75654C17.5525 5.64071 17.3725 5.53402 17.1868 5.45577C17.0209 5.37544 16.8582 5.31836 16.7027 5.27061C16.7905 5.28037 16.8777 5.29199 16.9698 5.30341C17.1268 5.31732 17.2876 5.35302 17.4522 5.36796C17.6154 5.40366 17.7846 5.41134 17.9525 5.44975C18.1219 5.48213 18.29 5.50538 18.4575 5.55042C18.6275 5.57449 18.789 5.62867 18.9544 5.66478C19.1219 5.69571 19.2762 5.75881 19.4364 5.79597C19.601 5.82898 19.7426 5.89872 19.8953 5.93816C20.0491 5.97656 20.1841 6.03489 20.3169 6.08284C20.4487 6.13099 20.5853 6.16109 20.6934 6.20904C20.803 6.25387 20.9089 6.2873 20.9938 6.31614C21.1663 6.37468 21.2792 6.40187 21.2792 6.40187C21.2792 6.40187 21.2479 6.29684 21.1655 6.12809C21.1242 6.04589 21.075 5.9392 21.009 5.82524C20.9456 5.70942 20.8479 5.60273 20.7468 5.47653C20.6424 5.35385 20.5278 5.21935 20.3811 5.10726C20.2358 4.99559 20.0898 4.85465 19.907 4.7629C19.8204 4.7108 19.728 4.66202 19.6353 4.61387C19.5439 4.56031 19.4451 4.51922 19.3424 4.48538C19.1427 4.40733 18.9345 4.33925 18.7213 4.29877C18.6123 4.27968 18.5065 4.25539 18.4002 4.24169C18.2916 4.22924 18.1833 4.22571 18.0782 4.2172C17.9713 4.20744 17.8657 4.20848 17.7627 4.21533C17.6631 4.22073 17.5655 4.22613 17.4696 4.23443C17.5732 4.18523 17.6743 4.13562 17.7793 4.08353C17.9043 4.02997 18.0272 3.9567 18.1501 3.90938C18.2132 3.88343 18.2717 3.85396 18.3319 3.82365C18.3911 3.7894 18.4546 3.7784 18.5137 3.74768C18.6316 3.69641 18.7485 3.63995 18.8651 3.60342C18.9803 3.559 19.0922 3.50317 19.1995 3.47639C19.3064 3.44069 19.4108 3.40167 19.5057 3.36471C19.5995 3.34022 19.6855 3.31054 19.7583 3.28833C19.9038 3.24038 19.9981 3.20032 19.9981 3.20032C19.9981 3.20032 19.9356 3.13307 19.8052 3.03697C19.7382 2.99088 19.6583 2.93048 19.5588 2.87215C19.4571 2.82358 19.3399 2.77958 19.207 2.73329C19.0727 2.68202 18.9258 2.66396 18.7643 2.64424C18.6032 2.61933 18.4351 2.62369 18.2599 2.6403C18.083 2.64943 17.908 2.69032 17.731 2.73972C17.5498 2.7775 17.3899 2.86468 17.2183 2.934C17.0558 3.01724 16.899 3.10753 16.7529 3.21111C16.7145 3.24017 16.6774 3.27213 16.6381 3.30119C16.652 3.23601 16.667 3.17333 16.6759 3.10628C16.7035 2.93109 16.7214 2.74864 16.723 2.5664L16.7191 2.29407C16.7143 2.20295 16.6992 2.11079 16.69 2.02215C16.6749 1.84385 16.6248 1.66949 16.579 1.50468C16.5373 1.33862 16.4673 1.18482 16.3996 1.04097C16.3646 0.968938 16.3336 0.900236 16.2985 0.835886C16.2562 0.774028 16.2161 0.713004 16.1777 0.654675C16.0962 0.54155 16.0233 0.440673 15.9463 0.357645C15.8666 0.274824 15.789 0.210686 15.7267 0.157756C15.6036 0.0487806 15.5198 0 15.5198 0C15.5198 0 15.5038 0.102333 15.4969 0.259876C15.4907 0.408912 15.4818 0.623541 15.4728 0.878827C15.4751 1.00026 15.4728 1.12812 15.4639 1.26428C15.4604 1.39734 15.4662 1.53247 15.4591 1.67652C15.4556 1.81663 15.4591 1.96006 15.4529 2.10702C15.45 2.2519 15.4552 2.39866 15.4448 2.54686C15.4523 2.69444 15.44 2.84264 15.4419 2.99023V2.99832C15.3686 2.8385 15.2848 2.67659 15.1748 2.52755C15.065 2.34572 14.9058 2.19876 14.7609 2.03811C14.604 1.8926 14.4296 1.7664 14.2604 1.64352C14.0798 1.54035 13.8968 1.44633 13.717 1.36641C13.5322 1.30269 13.3517 1.24955 13.181 1.207C13.0075 1.17067 12.84 1.16175 12.6883 1.15012C12.5357 1.13829 12.3993 1.1358 12.2731 1.15635C12.1494 1.17233 12.0423 1.19226 11.9539 1.2099C11.7797 1.24561 11.6807 1.28068 11.6807 1.28068C11.6807 1.28068 11.7635 1.35562 11.9024 1.45899C11.9732 1.50984 12.0562 1.57481 12.1517 1.6375C12.2497 1.69604 12.3508 1.77284 12.4606 1.85504C12.5697 1.93744 12.691 2.00884 12.8101 2.0954C12.9266 2.18715 13.0461 2.27785 13.1729 2.36233C13.2908 2.46134 13.4077 2.56222 13.5339 2.6521C13.6414 2.76377 13.7687 2.85469 13.8762 2.96387C13.981 3.07492 14.1018 3.17476 14.1981 3.29142C14.2457 3.34995 14.3017 3.40268 14.3534 3.45976C14.3988 3.51809 14.4462 3.57766 14.496 3.63349C14.596 3.74682 14.6764 3.86971 14.7673 3.98221C14.8435 4.09409 14.9279 4.19891 14.9952 4.30394C14.9533 4.25849 14.912 4.21012 14.863 4.16404C14.7434 4.03784 14.5975 3.91745 14.4414 3.79415C14.2803 3.6748 14.1051 3.5569 13.9129 3.45249C13.718 3.35182 13.5163 3.24534 13.2966 3.17539C13.1881 3.13844 13.0789 3.09216 12.9664 3.06351L12.6225 2.98277C12.3927 2.92901 12.1567 2.91469 11.9252 2.89704C11.8098 2.88313 11.6944 2.88894 11.5807 2.89704C11.4669 2.90181 11.3554 2.90679 11.2465 2.91696C11.0287 2.93399 10.821 2.99252 10.626 3.03487C10.4324 3.07472 10.2561 3.15567 10.0963 3.21961C9.93648 3.29226 9.79036 3.34705 9.67142 3.42904C9.55206 3.50439 9.45098 3.57912 9.36816 3.63848C9.20542 3.75866 9.12177 3.83899 9.12177 3.83899C9.12177 3.83899 9.24237 3.86349 9.44019 3.883C9.53691 3.89005 9.65627 3.90541 9.78662 3.90915C9.91614 3.90915 10.0658 3.94132 10.2217 3.95046C10.3788 3.96603 10.5424 3.96436 10.7165 3.99446C10.8874 4.02103 11.0673 4.02145 11.2491 4.05341C11.4303 4.08642 11.6172 4.09659 11.8044 4.13374C11.9912 4.17359 12.1826 4.18439 12.3685 4.2367L12.6515 4.29087C12.7447 4.31433 12.8381 4.33737 12.9302 4.35895C13.1177 4.39652 13.2976 4.45319 13.4778 4.49636C13.8325 4.59744 14.1757 4.69355 14.4727 4.78924C14.6263 4.83719 14.7664 4.88244 14.8912 4.92084C14.438 5.67556 12.5902 9.11316 12.3478 15.2875C12.232 15.2829 12.1207 15.2744 12.0028 15.2726C11.4115 15.2649 10.8512 15.2958 10.3147 15.3514C9.91654 12.1987 8.21921 9.36653 7.81611 8.73153C7.87257 8.70911 7.93152 8.68773 7.99192 8.66158C8.10297 8.62027 8.21278 8.56838 8.33379 8.52271C8.44816 8.47207 8.57146 8.42661 8.69206 8.37596C8.81265 8.31992 8.94114 8.28733 9.06112 8.229C9.1867 8.19558 9.30605 8.13207 9.42976 8.10197C9.55306 8.06087 9.67262 8.01562 9.79467 7.98885C9.85383 7.97515 9.9134 7.95397 9.9738 7.93446C10.0342 7.92222 10.0946 7.91392 10.1538 7.89731C10.2725 7.8614 10.3914 7.84646 10.5091 7.82674C10.5672 7.81366 10.626 7.80224 10.6827 7.78958C10.741 7.78543 10.7972 7.77983 10.8508 7.7736C10.9606 7.76447 11.0725 7.73873 11.1671 7.73437C11.2634 7.73105 11.3537 7.7188 11.4293 7.71382C11.5808 7.69784 11.6804 7.67874 11.6804 7.67874C11.6804 7.67874 11.635 7.60048 11.5295 7.47844C11.4774 7.41866 11.4116 7.3431 11.3311 7.26506C11.2483 7.18908 11.1422 7.12827 11.0235 7.05375C10.9633 7.01784 10.9012 6.98442 10.8329 6.94685C10.7649 6.91737 10.6914 6.89454 10.6152 6.8688C10.5382 6.84202 10.4572 6.82168 10.3759 6.79677C10.2916 6.77332 10.2063 6.7756 10.1164 6.76169C10.0284 6.75256 9.93748 6.74862 9.84531 6.74322C9.75461 6.7455 9.66286 6.75692 9.57008 6.76771C9.38057 6.77788 9.19998 6.83579 9.02042 6.88935C8.84129 6.94643 8.67647 7.03278 8.51581 7.11456C8.51166 7.11726 8.50772 7.12017 8.50398 7.12225C8.57393 7.01867 8.6387 6.91135 8.71072 6.81338C8.78835 6.68926 8.87533 6.57468 8.95379 6.46155C8.99364 6.40405 9.03868 6.35527 9.07667 6.29757C9.11839 6.24547 9.16052 6.19607 9.19872 6.14189C9.3654 5.94283 9.53353 5.76494 9.70394 5.61487C9.78905 5.53931 9.87415 5.47414 9.95635 5.41249C10.0421 5.35188 10.1174 5.29978 10.1805 5.25743C10.3148 5.17939 10.4001 5.11898 10.4001 5.11898C10.4001 5.11898 10.3194 5.06688 10.156 5.00254C10.0776 4.9797 9.97399 4.94338 9.85402 4.92864C9.73404 4.91287 9.59414 4.9054 9.44178 4.92096C9.13998 4.94836 8.78563 5.06668 8.46644 5.27632C8.30806 5.3826 8.15197 5.50361 8.01746 5.646C7.87963 5.78341 7.75924 5.93847 7.64944 6.09809C7.54503 6.25854 7.44997 6.42356 7.37482 6.59273C7.3412 6.66683 7.30985 6.74177 7.28266 6.81628C7.28059 6.77103 7.27913 6.72308 7.27727 6.67845C7.27664 6.55142 7.26211 6.42314 7.26128 6.30192C7.26253 6.17863 7.2426 6.05492 7.24613 5.93701C7.24218 5.82015 7.22766 5.69976 7.22973 5.58912C7.22973 5.47745 7.21167 5.36121 7.21935 5.2595C7.21915 5.15655 7.2152 5.05484 7.21043 4.9604C7.21188 4.87114 7.21105 4.78832 7.21105 4.71588C7.21105 4.5739 7.2013 4.47841 7.2013 4.47841C7.2013 4.47841 7.11827 4.50872 6.99061 4.58822C6.92938 4.6289 6.84718 4.67685 6.76416 4.74473C6.69006 4.81385 6.61097 4.89937 6.52586 4.99651C6.43682 5.09344 6.3733 5.21342 6.29961 5.34087C6.22344 5.46936 6.17196 5.6132 6.12339 5.76369C6.06796 5.9148 6.04327 6.07504 6.02105 6.23861C5.99199 6.40279 6.00383 6.56864 5.99905 6.7347C6.0113 6.89785 6.02936 7.06058 6.06132 7.21875C6.06257 7.2229 6.06361 7.22622 6.06423 7.22892C6.00653 7.18907 5.9482 7.15129 5.88655 7.11372C5.72589 7.03131 5.56066 6.94579 5.38153 6.88851C5.20157 6.83516 5.02119 6.77808 4.83166 6.7677C4.73887 6.75691 4.64692 6.74715 4.55642 6.74383C4.46426 6.74861 4.37376 6.75359 4.28533 6.76251C4.10703 6.77123 3.94076 6.81814 3.78716 6.87024C3.71078 6.89577 3.63771 6.91757 3.56901 6.9458C3.49843 6.98399 3.43014 7.0199 3.36725 7.05747C3.24727 7.13303 3.13166 7.19737 3.05838 7.27147C2.9849 7.34537 2.92388 7.41905 2.87364 7.47738C2.77256 7.59736 2.72108 7.67769 2.72108 7.67769C2.72108 7.67769 2.81531 7.69886 2.97099 7.71277C3.048 7.71671 3.14141 7.72646 3.24665 7.72646C3.35105 7.72916 3.45338 7.75781 3.55945 7.77026C3.61218 7.77732 3.66635 7.78147 3.71887 7.78832C3.77574 7.79911 3.83407 7.81032 3.89198 7.82423C3.95114 7.83585 4.00988 7.8427 4.06924 7.85038C4.12902 7.86159 4.18922 7.88173 4.24775 7.89439C4.3067 7.91037 4.36711 7.92054 4.42772 7.93196C4.48812 7.95106 4.54769 7.97327 4.60685 7.98697C4.7289 8.01374 4.84888 8.05983 4.97134 8.10092C5.09505 8.13123 5.21358 8.19516 5.33937 8.22878C5.4583 8.28856 5.58803 8.31928 5.70739 8.37636C5.74724 8.39338 5.78502 8.40812 5.82612 8.42597C5.71009 8.4185 5.59281 8.41227 5.47014 8.42597C5.29848 8.43573 5.12225 8.45939 4.94769 8.50671C4.76938 8.54055 4.60063 8.61507 4.42835 8.68232C4.26001 8.75518 4.10122 8.8519 3.94741 8.94635C3.79858 9.04598 3.66553 9.16409 3.53683 9.27452C3.41686 9.3947 3.31162 9.52298 3.21572 9.64316C3.11774 9.76107 3.05174 9.89702 2.98635 10.0131C2.92367 10.1336 2.867 10.241 2.83794 10.3493C2.80307 10.4537 2.78148 10.5509 2.76259 10.6281C2.72689 10.784 2.72004 10.8794 2.72004 10.8794C2.72004 10.8794 2.81697 10.8487 2.95937 10.7887C3.02994 10.7572 3.11878 10.7221 3.20783 10.6762C3.2948 10.6281 3.40274 10.5866 3.51192 10.5361C3.62173 10.4888 3.72344 10.4207 3.84611 10.3715C3.96546 10.3194 4.0817 10.2576 4.20147 10.1957C4.3258 10.1436 4.44868 10.0826 4.56949 10.0207C4.6986 9.97361 4.81671 9.89993 4.9454 9.85135C5.05915 9.8034 5.17041 9.75048 5.28395 9.70398C5.25863 9.7293 5.2304 9.75317 5.203 9.77725C5.09029 9.90138 4.97239 10.0243 4.87296 10.1679C4.77769 10.3111 4.67743 10.4519 4.61142 10.6127C4.5313 10.7645 4.4736 10.9228 4.43437 11.0854C4.41527 11.1636 4.39099 11.2396 4.3775 11.3178C4.36919 11.398 4.35881 11.4748 4.35363 11.5503C4.34885 11.6257 4.34179 11.6973 4.34055 11.767C4.34179 11.8386 4.35134 11.9082 4.35923 11.9717C4.37646 12.1027 4.39369 12.2204 4.42109 12.3237C4.45409 12.4254 4.49374 12.5136 4.52612 12.5838C4.58777 12.7237 4.64007 12.7978 4.64007 12.7978C4.64007 12.7978 4.69965 12.7208 4.77935 12.5975C4.81838 12.5352 4.86674 12.4628 4.91303 12.3827C4.96513 12.3019 5.02823 12.2143 5.08552 12.1217C5.13679 12.0286 5.20425 11.9337 5.27379 11.8382C5.30762 11.788 5.33544 11.738 5.36865 11.6877C5.40684 11.6381 5.44006 11.5875 5.47617 11.5383C5.51374 11.4866 5.54321 11.4334 5.57725 11.3824C5.61648 11.3336 5.65426 11.2807 5.68976 11.2273C5.75929 11.1229 5.83858 11.0169 5.91435 10.9129C5.98015 10.8018 6.07127 10.704 6.13956 10.5911C6.22051 10.4884 6.29005 10.3769 6.36664 10.2735C6.51609 10.0616 6.65973 9.85238 6.78199 9.66331C6.80005 9.63446 6.81645 9.6083 6.83367 9.58173C7.32105 10.3842 8.71901 12.8815 9.04846 15.5427C5.63143 16.2257 3.52743 18.0307 2.7479 18.8209C2.54926 19.0226 2.6327 19.1997 2.91561 19.1997L2.91515 19.1996Z" fill="#404040"/>
<path d="M6.17143 22.3362C6.72874 22.8022 7.88305 23.6265 9.08673 23.6265C10.2879 23.6265 11.4427 22.8022 12 22.3362C12.5573 22.8022 13.712 23.6265 14.9132 23.6265C16.1169 23.6265 17.2712 22.8022 17.8285 22.3362C18.3837 22.8022 19.5408 23.6265 20.7419 23.6265C22.3814 23.6265 23.9337 22.0915 23.9996 22.0259L23.314 21.3389C23.3001 21.3528 21.9778 22.6536 20.7418 22.6536C19.5065 22.6536 18.1841 21.3529 18.1702 21.3389L17.8283 20.9993L17.4852 21.3389C17.4707 21.3528 16.1485 22.6536 14.913 22.6536C13.6792 22.6536 12.3553 21.3529 12.3431 21.3389L11.9991 20.9993L11.6558 21.3389C11.6436 21.3528 10.3197 22.6536 9.08635 22.6536C7.85089 22.6536 6.52866 21.3529 6.51437 21.3389L6.17042 20.9993L5.82918 21.3389C5.81527 21.3528 4.49302 22.6536 3.25757 22.6536C2.02211 22.6536 0.69988 21.3529 0.685586 21.3389L0 22.0259C0.0653862 22.0917 1.61821 23.6265 3.25762 23.6265C4.45901 23.6263 5.61625 22.8022 6.17149 22.3362H6.17143Z" fill="#404040"/>
<path d="M20.7424 25.8116C19.5071 25.8116 18.1847 24.5077 18.1708 24.496L17.8289 24.1548L17.4858 24.496C17.4713 24.5077 16.149 25.8116 14.9136 25.8116C13.6798 25.8116 12.3559 24.5077 12.3437 24.496L11.9997 24.1548L11.6564 24.496C11.6442 24.5077 10.3203 25.8116 9.08693 25.8116C7.85147 25.8116 6.52924 24.5077 6.51495 24.496L6.171 24.1548L5.82976 24.496C5.81585 24.5077 4.4936 25.8116 3.25815 25.8116C2.02269 25.8116 0.70046 24.5077 0.686166 24.496L0.000579834 25.1831C0.0665877 25.2495 1.619 26.782 3.25841 26.782C4.45944 26.782 5.61662 25.9578 6.17186 25.4914C6.72917 25.9578 7.88348 26.782 9.08716 26.782C10.2883 26.782 11.4431 25.9578 12.0004 25.4914C12.5577 25.9578 13.7124 26.782 14.9136 26.782C16.1173 26.782 17.2716 25.9578 17.8289 25.4914C18.3842 25.9578 19.5414 26.782 20.7424 26.782C22.3818 26.782 23.9342 25.2495 24 25.1831L23.3144 24.496C23.3001 24.5077 21.9777 25.8116 20.7424 25.8116H20.7424Z" fill="#404040"/>
</svg>
