<svg width="21" height="21" viewBox="0 0 21 21" fill="none" xmlns="http://www.w3.org/2000/svg">
<path d="M11.325 15.0001H5.175C4.90315 15.0001 4.64244 15.1054 4.45021 15.293C4.25799 15.4805 4.15 15.7349 4.15 16.0001C4.15 16.2653 4.25799 16.5196 4.45021 16.7072C4.64244 16.8947 4.90315 17.0001 5.175 17.0001H11.325C11.5968 17.0001 11.8576 16.8947 12.0498 16.7072C12.242 16.5196 12.35 16.2653 12.35 16.0001C12.35 15.7349 12.242 15.4805 12.0498 15.293C11.8576 15.1054 11.5968 15.0001 11.325 15.0001ZM7.225 9.00007H9.275C9.54684 9.00007 9.80755 8.89471 9.99978 8.70717C10.192 8.51964 10.3 8.26528 10.3 8.00007C10.3 7.73485 10.192 7.4805 9.99978 7.29296C9.80755 7.10543 9.54684 7.00007 9.275 7.00007H7.225C6.95315 7.00007 6.69244 7.10543 6.50021 7.29296C6.30799 7.4805 6.2 7.73485 6.2 8.00007C6.2 8.26528 6.30799 8.51964 6.50021 8.70717C6.69244 8.89471 6.95315 9.00007 7.225 9.00007V9.00007ZM19.525 11.0001H16.45V2.00007C16.4507 1.82386 16.4037 1.65059 16.3137 1.49781C16.2237 1.34504 16.0939 1.21817 15.9375 1.13007C15.7817 1.0423 15.6049 0.996094 15.425 0.996094C15.2451 0.996094 15.0683 1.0423 14.9125 1.13007L11.8375 2.85007L8.7625 1.13007C8.60668 1.0423 8.42992 0.996094 8.25 0.996094C8.07007 0.996094 7.89332 1.0423 7.7375 1.13007L4.6625 2.85007L1.5875 1.13007C1.43168 1.0423 1.25492 0.996094 1.075 0.996094C0.895071 0.996094 0.718316 1.0423 0.562496 1.13007C0.406076 1.21817 0.276297 1.34504 0.186299 1.49781C0.0963001 1.65059 0.0492788 1.82386 0.0499959 2.00007V18.0001C0.0499959 18.7957 0.373968 19.5588 0.950643 20.1214C1.52732 20.684 2.30946 21.0001 3.125 21.0001H17.475C18.2905 21.0001 19.0727 20.684 19.6493 20.1214C20.226 19.5588 20.55 18.7957 20.55 18.0001V12.0001C20.55 11.7349 20.442 11.4805 20.2498 11.293C20.0576 11.1054 19.7968 11.0001 19.525 11.0001ZM3.125 19.0001C2.85315 19.0001 2.59244 18.8947 2.40021 18.7072C2.20799 18.5196 2.1 18.2653 2.1 18.0001V3.73007L4.15 4.87007C4.30819 4.95068 4.48402 4.99278 4.6625 4.99278C4.84097 4.99278 5.0168 4.95068 5.175 4.87007L8.25 3.15007L11.325 4.87007C11.4832 4.95068 11.659 4.99278 11.8375 4.99278C12.016 4.99278 12.1918 4.95068 12.35 4.87007L14.4 3.73007V18.0001C14.4028 18.3412 14.4652 18.6794 14.5845 19.0001H3.125ZM18.5 18.0001C18.5 18.2653 18.392 18.5196 18.1998 18.7072C18.0076 18.8947 17.7468 19.0001 17.475 19.0001C17.2031 19.0001 16.9424 18.8947 16.7502 18.7072C16.558 18.5196 16.45 18.2653 16.45 18.0001V13.0001H18.5V18.0001ZM11.325 11.0001H5.175C4.90315 11.0001 4.64244 11.1054 4.45021 11.293C4.25799 11.4805 4.15 11.7349 4.15 12.0001C4.15 12.2653 4.25799 12.5196 4.45021 12.7072C4.64244 12.8947 4.90315 13.0001 5.175 13.0001H11.325C11.5968 13.0001 11.8576 12.8947 12.0498 12.7072C12.242 12.5196 12.35 12.2653 12.35 12.0001C12.35 11.7349 12.242 11.4805 12.0498 11.293C11.8576 11.1054 11.5968 11.0001 11.325 11.0001Z" fill="#404040"/>
</svg>
